<?xml version="1.0" encoding="UTF-8"?>
<!DOCTYPE svg PUBLIC "-//W3C//DTD SVG 1.1//EN" "http://www.w3.org/Graphics/SVG/1.1/DTD/svg11.dtd">
<svg xmlns="http://www.w3.org/2000/svg" version="1.1" width="223px" height="219px" style="shape-rendering:geometricPrecision; text-rendering:geometricPrecision; image-rendering:optimizeQuality; fill-rule:evenodd; clip-rule:evenodd" xmlns:xlink="http://www.w3.org/1999/xlink">
<g><path style="opacity:1" fill="#fdfdfd" d="M -0.5,-0.5 C 73.8333,-0.5 148.167,-0.5 222.5,-0.5C 222.5,72.5 222.5,145.5 222.5,218.5C 148.167,218.5 73.8333,218.5 -0.5,218.5C -0.5,145.5 -0.5,72.5 -0.5,-0.5 Z"/></g>
<g><path style="opacity:1" fill="#0b693b" d="M 15.5,133.5 C 16.4025,130.609 16.7359,127.609 16.5,124.5C 18.7662,119.066 22.5995,115.066 28,112.5C 35.3917,116.152 35.2251,119.652 27.5,123C 19.5682,130.635 19.5682,138.301 27.5,146C 31.9435,147.94 36.6101,148.94 41.5,149C 42.8932,150.171 43.7265,151.671 44,153.5C 45.5874,152.273 46.9207,152.606 48,154.5C 49.7454,152.911 50.912,150.911 51.5,148.5C 60.2149,148.23 66.3815,144.23 70,136.5C 70.7428,127.821 66.9095,122.321 58.5,120C 53.9995,115.495 54.8328,112.662 61,111.5C 65.0473,112.195 68.3807,114.195 71,117.5C 68.7091,111.532 64.5425,107.032 58.5,104C 56.5,103.333 54.5,103.333 52.5,104C 50,105.833 47.5,107.667 45,109.5C 44.6667,108.167 44.3333,106.833 44,105.5C 42.5037,107.869 40.6704,109.202 38.5,109.5C 36.0207,107.924 33.354,106.924 30.5,106.5C 29.8333,105.833 29.1667,105.167 28.5,104.5C 35.109,101.168 41.7756,99.3348 48.5,99C 61.0805,101.794 70.9139,109.294 78,121.5C 81.7162,117.452 85.0496,113.118 88,108.5C 92.0325,99.5365 95.5325,90.3699 98.5,81C 98.0946,80.0546 97.428,79.3879 96.5,79C 79.9596,74.2275 64.6263,67.0608 50.5,57.5C 43.7777,68.964 34.4443,71.964 22.5,66.5C 26.9441,63.559 30.9441,60.059 34.5,56C 38.0458,54.8263 41.7125,54.1596 45.5,54C 40.5412,49.1665 34.5412,47.1665 27.5,48C 18.486,45.1421 13.986,38.9754 14,29.5C 19.5886,32.2866 25.422,34.4532 31.5,36C 34.5153,38.8634 36.3487,42.3634 37,46.5C 38.3374,47.7649 39.8374,48.2649 41.5,48C 36.0566,39.2483 36.8899,31.0817 44,23.5C 45.3859,28.9029 47.7193,33.9029 51,38.5C 52.0382,43.1958 51.2048,47.5291 48.5,51.5C 60.4702,61.4524 74.1369,68.2857 89.5,72C 101.145,74.774 112.811,77.4406 124.5,80C 127.284,80.8917 129.95,82.0584 132.5,83.5C 133.646,82.8551 134.646,82.0217 135.5,81C 129.257,75.9562 125.424,69.4562 124,61.5C 123,60.1667 122,58.8333 121,57.5C 113.957,69.6224 104.123,72.4558 91.5,66C 94.1768,65.7506 96.5101,64.7506 98.5,63C 101.203,59.962 104.203,57.2954 107.5,55C 111.575,54.4816 115.575,54.4816 119.5,55C 115.67,49.6924 110.67,48.1924 104.5,50.5C 94.2564,49.7492 88.4231,44.4158 87,34.5C 92.6646,36.1566 98.4979,37.3233 104.5,38C 109.163,41.8301 113.497,45.9968 117.5,50.5C 117.833,50.3333 118.167,50.1667 118.5,50C 113.846,38.2746 117.346,29.7746 129,24.5C 128.815,30.427 128.815,36.427 129,42.5C 127.102,46.5694 124.269,49.9028 120.5,52.5C 126.938,61.1083 133.938,69.275 141.5,77C 145.571,78.9723 149.904,80.3057 154.5,81C 158.913,84.0793 162.579,87.7459 165.5,92C 180.789,97.2145 196.455,100.715 212.5,102.5C 212.446,107.587 212.613,112.587 213,117.5C 203.721,110.449 193.221,106.616 181.5,106C 176.129,104.265 170.796,102.432 165.5,100.5C 165.097,104.793 165.597,109.126 167,113.5C 169.779,135.384 166.779,156.384 158,176.5C 146.563,194.919 130.063,205.753 108.5,209C 76.8292,213.227 50.6626,203.394 30,179.5C 20.6579,165.638 15.8246,150.305 15.5,133.5 Z"/></g>
<g><path style="opacity:1" fill="#f6f8f6" d="M 120.5,86.5 C 123.912,87.1871 127.246,88.1871 130.5,89.5C 131.246,111.096 125.413,130.763 113,148.5C 114.781,138.585 116.448,128.585 118,118.5C 118.73,110.51 119.23,102.51 119.5,94.5C 119.194,91.6146 119.527,88.9479 120.5,86.5 Z"/></g>
<g><path style="opacity:1" fill="#83a38e" d="M 120.5,86.5 C 119.527,88.9479 119.194,91.6146 119.5,94.5C 118.197,91.6447 118.197,88.6447 119.5,85.5C 120.107,85.6236 120.44,85.9569 120.5,86.5 Z"/></g>
<g><path style="opacity:1" fill="#f8faf9" d="M 16.5,124.5 C 17.0991,121.037 18.0991,117.704 19.5,114.5C 21.2624,113.738 22.2624,112.404 22.5,110.5C 23.5,110.167 24.1667,109.5 24.5,108.5C 26.3146,107.37 28.3146,106.704 30.5,106.5C 33.354,106.924 36.0207,107.924 38.5,109.5C 40.6704,109.202 42.5037,107.869 44,105.5C 44.3333,106.833 44.6667,108.167 45,109.5C 47.5,107.667 50,105.833 52.5,104C 54.5,103.333 56.5,103.333 58.5,104C 64.5425,107.032 68.7091,111.532 71,117.5C 68.3807,114.195 65.0473,112.195 61,111.5C 54.8328,112.662 53.9995,115.495 58.5,120C 66.9095,122.321 70.7428,127.821 70,136.5C 66.3815,144.23 60.2149,148.23 51.5,148.5C 50.912,150.911 49.7454,152.911 48,154.5C 46.9207,152.606 45.5874,152.273 44,153.5C 43.7265,151.671 42.8932,150.171 41.5,149C 36.6101,148.94 31.9435,147.94 27.5,146C 19.5682,138.301 19.5682,130.635 27.5,123C 35.2251,119.652 35.3917,116.152 28,112.5C 22.5995,115.066 18.7662,119.066 16.5,124.5 Z"/></g>
<g><path style="opacity:1" fill="#7ca189" d="M 28.5,104.5 C 29.1667,105.167 29.8333,105.833 30.5,106.5C 28.3146,106.704 26.3146,107.37 24.5,108.5C 25.5,106.833 26.8333,105.5 28.5,104.5 Z"/></g>
<g><path style="opacity:1" fill="#4f8363" d="M 24.5,108.5 C 24.1667,109.5 23.5,110.167 22.5,110.5C 22.5,109.167 23.1667,108.5 24.5,108.5 Z"/></g>
<g><path style="opacity:1" fill="#639274" d="M 22.5,110.5 C 22.2624,112.404 21.2624,113.738 19.5,114.5C 19.7376,112.596 20.7376,111.262 22.5,110.5 Z"/></g>
<g><path style="opacity:1" fill="#e2e9e5" d="M 59.5,113.5 C 62.5,113.167 63.8333,114.5 63.5,117.5C 59.56,118.234 58.2266,116.901 59.5,113.5 Z"/></g>
<g><path style="opacity:1" fill="#dae2dd" d="M 26.5,115.5 C 27.8333,115.5 29.1667,115.5 30.5,115.5C 30.6162,118.91 28.9496,120.244 25.5,119.5C 25.4326,118.041 25.7659,116.708 26.5,115.5 Z"/></g>
<g><path style="opacity:1" fill="#2c734a" d="M 43.5,115.5 C 49.454,116.72 49.7874,118.72 44.5,121.5C 41.025,119.916 40.6917,117.916 43.5,115.5 Z"/></g>
<g><path style="opacity:1" fill="#377851" d="M 45.5,126.5 C 43.901,126.768 42.5676,126.434 41.5,125.5C 45.3587,125.374 48.692,124.041 51.5,121.5C 51.0277,124.271 49.0277,125.938 45.5,126.5 Z"/></g>
<g><path style="opacity:1" fill="#a0b7a9" d="M 41.5,125.5 C 42.5676,126.434 43.901,126.768 45.5,126.5C 42.8934,127.802 40.2268,127.636 37.5,126C 38.7932,125.51 40.1266,125.343 41.5,125.5 Z"/></g>
<g><path style="opacity:1" fill="#5d8b6e" d="M 19.5,114.5 C 18.0991,117.704 17.0991,121.037 16.5,124.5C 16.7359,127.609 16.4025,130.609 15.5,133.5C 13.5031,126.511 14.8364,120.178 19.5,114.5 Z"/></g>
</svg>
