<?xml version="1.0" standalone="no"?>
<!DOCTYPE svg PUBLIC "-//W3C//DTD SVG 20010904//EN"
 "http://www.w3.org/TR/2001/REC-SVG-20010904/DTD/svg10.dtd">
<svg version="1.0" xmlns="http://www.w3.org/2000/svg"
 width="223.000000pt" height="219.000000pt" viewBox="0 0 223.000000 219.000000"
 preserveAspectRatio="xMidYMid meet">

<g transform="translate(0.000000,219.000000) scale(0.100000,-0.100000)"
fill="#000000" stroke="none">
<path d="M412 1901 c-35 -62 -37 -109 -8 -164 l26 -47 -29 15 c-19 9 -32 26
-36 45 -11 49 -57 87 -123 100 -31 7 -68 19 -80 27 -24 15 -24 14 -17 -19 11
-49 30 -82 65 -112 34 -28 46 -32 128 -40 38 -4 65 -14 97 -37 25 -18 45 -33
45 -34 0 0 -16 1 -35 3 -54 6 -81 -5 -139 -57 -29 -27 -60 -51 -67 -53 -29
-10 3 -21 75 -26 64 -4 79 -2 110 17 19 12 45 38 56 57 12 18 24 34 27 34 3 0
29 -16 57 -37 58 -41 203 -107 327 -148 46 -15 88 -31 93 -35 12 -11 -36 -156
-84 -255 -21 -45 -56 -100 -77 -124 l-39 -44 -33 51 c-32 50 -81 96 -128 121
-36 19 -27 6 17 -23 22 -15 53 -49 70 -79 34 -59 41 -89 9 -40 -42 66 -131 96
-148 51 -12 -32 3 -54 44 -68 43 -14 82 -60 91 -107 5 -29 2 -47 -17 -82 -24
-46 -46 -59 -144 -88 -19 -5 -31 -16 -33 -30 -4 -25 -32 -39 -43 -22 -4 6 -12
8 -18 5 -6 -4 -11 -1 -11 8 0 20 -31 36 -70 36 -71 0 -133 46 -151 113 -14 54
18 120 71 147 49 25 61 57 31 81 -18 15 -28 16 -49 8 -36 -14 -68 -45 -83 -81
-11 -28 -14 -29 -20 -12 -5 10 -6 -39 -4 -111 6 -219 63 -368 192 -505 152
-162 325 -236 578 -247 111 -4 143 -2 217 16 257 61 435 238 499 494 29 114
36 338 16 472 -9 55 -14 101 -13 102 2 2 47 -10 101 -27 53 -16 124 -34 157
-39 60 -10 136 -42 195 -81 l33 -22 -5 29 c-2 15 -7 49 -10 75 -6 45 -8 48
-43 57 -20 5 -72 14 -114 20 -184 25 -348 79 -348 115 0 31 -90 86 -138 86
-40 0 -110 59 -179 151 -30 41 -64 84 -75 96 l-21 23 44 39 44 39 0 100 0 101
-25 -16 c-89 -56 -117 -120 -91 -211 15 -52 -4 -40 -82 52 -32 37 -36 38 -116
46 -45 5 -89 14 -97 21 -35 29 6 -53 49 -99 38 -39 90 -55 156 -46 42 5 55 3
80 -15 42 -30 39 -40 -8 -34 -58 8 -87 -3 -140 -52 -26 -24 -58 -48 -71 -53
-23 -9 -23 -10 14 -22 22 -7 64 -10 99 -8 58 4 62 7 108 57 l48 52 15 -24 c9
-13 25 -50 36 -82 12 -36 35 -75 57 -97 29 -29 34 -41 25 -50 -9 -9 -24 -7
-64 10 -52 21 -76 27 -293 76 -187 42 -322 96 -451 178 l-61 39 18 37 c28 53
24 90 -16 152 -19 30 -35 60 -35 67 0 27 -18 20 -38 -16z m853 -592 c63 -19
66 -22 61 -47 -2 -15 -8 -54 -11 -87 -16 -147 -100 -381 -169 -470 -22 -28
-21 -10 9 120 30 137 48 325 39 428 -4 42 -4 77 -1 77 3 0 35 -9 72 -21z
m-627 -282 c3 -14 -1 -18 -20 -15 -12 2 -24 11 -26 21 -3 14 1 18 20 15 12 -2
24 -11 26 -21z m-330 -14 c-4 -22 -48 -31 -48 -10 0 19 10 27 32 27 13 0 18
-6 16 -17z"/>
<path d="M422 1189 c-4 -4 -33 -14 -65 -24 -57 -18 -136 -76 -158 -117 -6 -11
12 4 39 32 54 56 59 56 127 24 19 -10 31 -11 33 -4 2 5 8 7 14 4 5 -3 16 2 23
12 14 18 14 18 15 -6 1 -14 4 -19 7 -12 2 6 9 12 15 12 5 0 21 9 35 20 14 11
40 20 57 20 43 0 15 17 -41 26 -24 3 -41 10 -38 14 5 9 -53 8 -63 -1z"/>
<path d="M176 1005 c-9 -26 -7 -32 5 -12 6 10 9 21 6 23 -2 3 -7 -2 -11 -11z"/>
<path d="M425 1010 c-3 -5 1 -17 9 -25 13 -13 19 -13 36 -3 11 7 19 17 17 23
-5 14 -54 18 -62 5z"/>
<path d="M507 953 c-4 -3 -28 -12 -54 -19 -46 -12 -47 -13 -13 -13 20 0 46 8
60 19 14 11 22 20 19 20 -3 0 -9 -3 -12 -7z"/>
</g>
</svg>
