<?xml version="1.0" standalone="no"?>
<!DOCTYPE svg PUBLIC "-//W3C//DTD SVG 20010904//EN"
 "http://www.w3.org/TR/2001/REC-SVG-20010904/DTD/svg10.dtd">
<svg version="1.0" xmlns="http://www.w3.org/2000/svg"
 width="1716.000000pt" height="1592.000000pt" viewBox="0 0 1716.000000 1592.000000"
 preserveAspectRatio="xMidYMid meet">
<metadata>
Created by potrace 1.16, written by Peter Selinger 2001-2019
</metadata>
<g transform="translate(0.000000,1592.000000) scale(0.100000,-0.100000)"
fill="#5C9F49" stroke="none">
<path d="M2848 15638 c-49 -43 -125 -149 -243 -338 -50 -82 -131 -248 -149
-309 -9 -30 -27 -81 -40 -115 -36 -89 -50 -237 -44 -456 5 -151 9 -195 26
-240 49 -134 81 -208 110 -254 18 -28 32 -54 32 -58 0 -5 18 -35 39 -66 22
-31 43 -72 46 -89 6 -29 4 -33 -15 -33 -31 0 -139 29 -171 45 -15 8 -35 29
-46 47 -23 39 -66 167 -87 258 -8 36 -31 99 -50 140 -20 41 -36 80 -36 86 0
29 -163 245 -233 309 -77 71 -262 194 -291 195 -5 0 -43 16 -85 35 -46 20
-115 41 -170 50 -51 9 -125 27 -165 40 -41 13 -127 31 -192 40 -66 9 -144 26
-174 37 -30 11 -85 31 -122 43 -83 29 -171 82 -262 158 -53 44 -77 57 -102 57
-22 0 -36 -6 -42 -17 -15 -30 43 -401 73 -472 14 -34 31 -88 39 -121 8 -32 23
-72 34 -87 11 -15 31 -55 44 -88 14 -33 37 -77 51 -98 14 -21 29 -48 33 -60
17 -57 215 -281 319 -363 126 -98 331 -197 475 -229 58 -13 148 -33 200 -45
83 -20 135 -23 401 -29 l305 -6 65 -32 c35 -18 89 -44 119 -58 57 -26 121 -68
183 -120 20 -16 61 -48 92 -70 31 -22 79 -59 106 -82 27 -23 58 -47 69 -53 12
-6 20 -19 18 -28 -3 -15 -24 -17 -218 -14 -262 4 -414 -16 -502 -66 -29 -16
-64 -33 -78 -37 -75 -21 -393 -274 -467 -372 -98 -129 -332 -337 -420 -373
-21 -8 -58 -27 -83 -42 -25 -14 -67 -30 -95 -33 -67 -10 -115 -30 -115 -50 0
-18 61 -79 100 -100 14 -7 55 -21 90 -30 35 -9 82 -26 104 -37 23 -12 91 -32
151 -44 61 -13 144 -33 185 -46 69 -20 96 -22 340 -22 l265 0 113 37 c63 20
121 37 129 37 9 0 64 22 124 49 101 47 130 65 254 158 62 47 195 181 246 248
21 28 59 75 83 105 25 30 55 73 67 95 12 22 33 53 46 69 13 16 35 50 48 76 43
85 90 74 265 -62 52 -40 113 -85 135 -100 52 -36 128 -92 201 -148 81 -63 237
-170 248 -170 5 0 30 -13 55 -29 25 -16 66 -37 90 -47 25 -10 69 -33 100 -51
30 -18 62 -33 71 -33 9 0 50 -17 91 -39 41 -21 85 -42 99 -46 14 -4 43 -19 64
-32 21 -14 64 -34 94 -44 31 -11 74 -30 96 -43 23 -13 61 -29 86 -36 25 -6 69
-25 99 -42 30 -16 77 -37 105 -45 28 -8 69 -25 91 -38 22 -12 58 -28 80 -35
22 -7 72 -27 111 -46 39 -18 91 -38 115 -44 24 -6 67 -24 94 -40 28 -15 80
-35 115 -44 36 -9 83 -28 106 -41 22 -13 63 -29 90 -36 27 -7 74 -24 104 -39
30 -15 90 -37 133 -49 43 -12 95 -30 116 -40 21 -11 74 -29 119 -40 44 -11 98
-29 120 -40 21 -11 75 -29 119 -40 44 -11 104 -32 135 -46 30 -14 90 -31 134
-39 43 -8 99 -23 124 -34 25 -10 71 -27 103 -36 78 -23 87 -43 54 -122 -13
-32 -32 -95 -42 -139 -9 -44 -29 -107 -43 -140 -13 -33 -33 -98 -44 -145 -10
-46 -28 -105 -39 -130 -11 -25 -31 -86 -44 -137 -13 -51 -33 -110 -44 -131
-11 -21 -27 -67 -36 -103 -9 -35 -25 -80 -36 -99 -10 -19 -32 -73 -48 -120
-84 -243 -102 -290 -130 -344 -17 -32 -31 -64 -31 -72 0 -8 -18 -49 -39 -92
-22 -42 -43 -94 -46 -115 -4 -21 -19 -54 -33 -75 -14 -20 -36 -64 -48 -96 -13
-33 -31 -67 -39 -76 -9 -10 -25 -42 -36 -71 -11 -30 -31 -70 -43 -89 -13 -19
-49 -82 -81 -140 -59 -106 -109 -188 -165 -270 -16 -25 -56 -84 -88 -131 -31
-47 -84 -119 -117 -159 -33 -40 -74 -91 -91 -114 -48 -62 -236 -243 -261 -250
-25 -8 -72 44 -131 147 -151 265 -344 510 -585 744 -148 143 -197 183 -351
285 -55 37 -119 80 -141 95 -22 15 -62 37 -90 49 -47 20 -111 56 -214 120 -24
15 -68 31 -97 36 -33 5 -70 20 -96 38 -42 29 -118 50 -181 50 -17 0 -59 14
-94 31 -74 36 -151 48 -310 49 -158 0 -193 18 -138 70 32 30 32 55 0 76 -20
13 -45 15 -132 12 -94 -3 -115 -8 -161 -32 -30 -15 -61 -26 -70 -24 -9 2 -28
26 -42 53 -37 75 -52 71 -138 -29 -39 -47 -83 -93 -97 -102 -15 -10 -70 -21
-144 -29 -90 -10 -131 -20 -171 -40 -29 -15 -89 -32 -137 -40 -60 -10 -98 -22
-131 -44 -26 -16 -65 -33 -87 -36 -22 -4 -61 -21 -87 -37 -26 -16 -68 -36 -94
-44 -25 -7 -61 -27 -79 -43 -18 -16 -51 -34 -72 -41 -36 -12 -52 -24 -154
-110 -23 -19 -57 -44 -75 -55 -93 -56 -276 -230 -379 -360 -35 -44 -75 -93
-88 -110 -44 -54 -116 -164 -131 -198 -7 -19 -27 -53 -44 -76 -17 -23 -34 -57
-37 -74 -4 -18 -22 -59 -40 -92 -18 -33 -36 -78 -40 -100 -3 -22 -20 -71 -37
-109 -16 -38 -34 -98 -40 -135 -5 -36 -20 -129 -33 -206 -13 -77 -28 -169 -32
-205 -17 -144 -1 -812 20 -847 7 -11 20 -131 42 -373 16 -181 30 -275 50 -345
9 -27 22 -106 31 -175 8 -73 27 -163 44 -215 16 -49 34 -130 41 -180 6 -50 23
-121 39 -160 15 -39 35 -105 44 -148 8 -42 25 -95 36 -117 12 -23 30 -78 41
-122 11 -45 31 -102 44 -128 13 -25 31 -75 40 -111 9 -35 25 -78 35 -96 10
-18 30 -63 44 -100 13 -37 38 -93 55 -123 17 -30 31 -61 31 -69 0 -19 118
-258 131 -267 6 -3 19 -27 30 -51 20 -48 66 -127 131 -227 21 -32 38 -62 38
-66 0 -5 28 -50 62 -100 35 -51 79 -116 98 -146 45 -69 161 -220 275 -359 50
-60 101 -123 115 -140 38 -47 466 -471 558 -554 80 -71 104 -91 216 -176 29
-22 79 -60 110 -85 32 -25 77 -59 99 -77 45 -34 201 -140 307 -208 36 -23 90
-58 120 -78 30 -20 68 -41 83 -46 16 -6 47 -24 70 -39 23 -15 61 -36 85 -47
23 -10 47 -24 53 -31 6 -7 36 -23 67 -34 32 -12 77 -34 102 -50 25 -16 65 -36
89 -45 23 -8 56 -24 73 -36 16 -12 56 -30 88 -40 32 -10 85 -31 117 -47 32
-16 74 -33 93 -37 19 -4 62 -21 94 -37 33 -17 84 -36 115 -44 31 -8 78 -26
104 -40 26 -13 82 -32 124 -40 42 -9 115 -31 162 -49 47 -18 110 -35 139 -39
29 -4 88 -20 131 -35 42 -16 124 -36 182 -45 57 -8 136 -26 174 -40 42 -15
115 -29 185 -36 63 -6 131 -15 150 -20 116 -31 258 -53 425 -65 265 -20 374
-32 415 -44 58 -18 956 -15 1055 4 44 8 125 19 180 24 55 6 152 15 215 22 63
6 166 24 230 39 63 15 155 33 205 40 49 6 121 22 160 36 38 14 111 33 161 43
50 11 113 30 140 43 27 14 78 31 114 37 35 7 89 25 120 41 30 15 80 33 110 40
30 7 78 25 105 40 28 16 70 33 95 40 25 6 68 24 95 39 28 16 67 34 89 41 61
20 355 173 431 224 21 14 44 26 51 26 7 0 32 15 57 34 24 19 55 39 68 46 52
27 196 122 309 205 279 205 367 281 660 575 235 236 312 322 429 480 38 52 81
109 94 125 13 17 49 68 81 115 31 47 70 105 87 130 57 83 129 204 129 216 0 6
9 19 19 28 27 25 275 528 296 600 9 32 29 82 45 110 15 28 33 76 40 106 7 30
24 77 37 103 13 26 31 80 40 120 9 40 27 94 40 121 14 27 33 95 44 150 10 56
29 133 43 171 13 39 29 108 36 155 6 47 24 132 40 190 16 58 39 180 50 271 11
92 25 182 31 200 21 72 30 141 44 339 27 371 34 450 45 488 14 52 14 1165 -1
1212 -11 36 -19 128 -38 450 -13 209 -22 287 -56 480 -13 74 -31 205 -39 290
-10 98 -23 177 -36 214 -12 33 -28 116 -35 186 -8 70 -17 134 -21 144 -3 9 2
28 11 42 17 26 19 27 89 20 74 -6 131 -21 206 -54 25 -10 80 -27 123 -36 43
-10 97 -26 120 -36 23 -10 78 -28 123 -39 44 -11 105 -32 135 -45 30 -14 82
-30 116 -36 34 -6 91 -24 126 -40 35 -16 95 -34 133 -41 38 -6 107 -26 154
-44 47 -18 110 -36 140 -40 30 -4 98 -21 150 -37 111 -34 201 -47 322 -48 87
0 169 -13 308 -50 41 -10 105 -24 142 -30 37 -5 88 -19 114 -30 26 -11 86 -31
133 -45 48 -13 107 -35 132 -49 24 -13 64 -30 89 -36 25 -6 70 -26 100 -44 30
-19 72 -39 92 -45 20 -7 48 -21 62 -32 15 -11 53 -31 85 -44 33 -13 75 -34 93
-48 18 -14 47 -31 63 -37 16 -6 48 -25 70 -41 22 -16 103 -71 180 -122 77 -51
169 -114 204 -140 75 -56 108 -59 130 -13 20 42 1 284 -47 597 -12 74 -26 203
-31 285 -13 191 -27 289 -46 317 -35 54 -106 90 -217 111 -48 9 -116 28 -152
41 -41 16 -115 31 -196 40 -71 8 -164 26 -205 40 -48 15 -120 28 -202 35 -167
14 -285 29 -353 45 -54 12 -117 20 -394 50 -78 9 -172 25 -215 39 -42 13 -103
27 -136 31 -143 15 -211 28 -272 51 -36 14 -102 30 -147 35 -44 6 -115 24
-156 41 -41 16 -111 36 -155 44 -43 9 -106 27 -140 40 -33 14 -97 34 -143 44
-45 11 -109 31 -140 44 -32 14 -90 30 -128 37 -38 6 -96 24 -129 40 -33 15
-80 32 -105 38 -25 6 -97 37 -160 70 -63 33 -147 76 -185 94 -109 53 -157 118
-193 261 -11 42 -26 85 -34 95 -65 88 -84 110 -117 136 -21 17 -72 57 -112 91
-41 33 -88 69 -106 80 -17 10 -51 32 -75 47 -90 59 -163 98 -217 116 -31 10
-76 29 -100 42 -24 12 -83 30 -130 40 -47 9 -121 26 -163 37 -43 12 -143 26
-225 32 -80 6 -156 16 -167 22 -12 6 -52 39 -91 72 -38 34 -82 71 -96 81 -171
128 -502 430 -580 530 -22 28 -75 95 -119 150 -44 55 -94 118 -110 140 -17 22
-44 58 -60 80 -17 22 -55 77 -85 123 -30 46 -66 97 -80 115 -14 18 -60 79
-101 137 -128 180 -275 356 -451 541 -84 86 -103 112 -103 137 0 32 37 77 73
88 52 17 210 138 310 239 119 120 191 221 256 360 36 76 45 108 57 205 7 63
17 125 20 138 11 39 -24 356 -62 557 -50 270 -49 330 10 511 25 77 46 152 46
167 0 55 -73 58 -153 7 -25 -15 -64 -37 -88 -49 -40 -19 -78 -43 -246 -155
-226 -151 -449 -403 -528 -598 -14 -34 -31 -69 -39 -77 -15 -17 -72 -216 -88
-311 -13 -74 -3 -293 17 -354 8 -28 22 -95 31 -150 9 -60 27 -125 43 -161 36
-78 44 -111 31 -135 -16 -30 -45 -24 -100 18 -27 20 -81 57 -120 82 -78 50
-141 122 -165 189 -8 24 -30 64 -48 90 -19 25 -37 54 -40 64 -26 72 -248 306
-362 381 -130 86 -201 117 -335 149 -182 43 -212 46 -570 57 -210 6 -346 15
-385 24 -79 19 -258 89 -290 115 -63 49 -135 47 -135 -3 0 -44 38 -176 63
-219 13 -23 30 -59 37 -80 16 -50 107 -227 156 -303 78 -120 111 -161 229
-279 125 -126 223 -202 303 -237 26 -12 63 -31 82 -44 19 -12 53 -27 75 -34
22 -6 74 -25 116 -40 118 -45 217 -53 534 -47 267 6 286 7 409 36 72 17 143
31 159 31 27 0 85 -35 242 -145 113 -80 225 -183 225 -209 0 -27 -28 -38 -82
-32 -110 14 -195 28 -242 42 -78 22 -174 17 -360 -20 -182 -37 -262 -67 -395
-152 -96 -61 -140 -100 -386 -344 -235 -232 -341 -322 -406 -345 -20 -8 -55
-25 -76 -39 -23 -16 -66 -31 -104 -37 -89 -15 -119 -27 -119 -52 0 -11 8 -26
18 -34 45 -35 143 -83 192 -94 29 -6 83 -24 119 -39 36 -16 107 -35 157 -44
51 -9 104 -20 120 -26 15 -6 79 -20 142 -31 190 -32 401 -23 572 26 47 13 112
29 144 34 33 6 75 20 95 32 20 12 58 30 85 41 87 34 208 123 331 245 157 154
187 192 336 416 40 59 78 107 85 107 15 0 90 -84 111 -125 9 -16 26 -43 38
-60 28 -39 125 -236 125 -256 0 -8 16 -47 35 -87 19 -41 42 -103 50 -139 8
-36 28 -95 44 -132 16 -36 35 -88 42 -116 7 -27 23 -75 37 -105 13 -30 32 -77
42 -105 30 -85 101 -217 156 -291 29 -39 97 -111 151 -159 54 -48 123 -110
153 -139 30 -28 79 -71 108 -95 30 -26 52 -52 52 -64 0 -25 -147 -177 -171
-177 -10 0 -52 18 -94 40 -42 22 -82 40 -89 40 -7 0 -84 36 -172 80 -87 44
-166 80 -175 80 -9 0 -43 14 -75 31 -32 17 -88 37 -124 45 -36 8 -110 30 -166
49 -56 19 -115 35 -133 35 -17 0 -80 16 -139 35 -59 19 -141 39 -182 46 -41 6
-113 24 -160 40 -57 20 -122 33 -195 40 -60 6 -157 24 -215 40 -58 16 -161 35
-230 43 -73 9 -156 26 -200 41 -41 14 -113 35 -160 45 -47 11 -123 31 -169 45
-46 14 -127 30 -178 36 -52 6 -138 24 -191 40 -54 16 -128 34 -167 40 -38 5
-109 23 -156 39 -48 16 -122 35 -165 41 -44 7 -108 24 -144 39 -36 15 -103 35
-149 44 -46 10 -102 26 -124 38 -22 11 -81 30 -131 43 -50 12 -110 32 -134 44
-23 12 -75 29 -115 38 -39 8 -94 28 -122 43 -27 15 -74 33 -104 39 -30 6 -77
25 -105 40 -28 16 -78 36 -111 45 -33 8 -85 28 -115 45 -30 16 -71 32 -90 36
-19 4 -68 25 -108 46 -41 22 -81 39 -90 39 -8 0 -44 15 -78 34 -34 19 -82 40
-105 46 -24 7 -61 24 -84 39 -22 16 -61 35 -87 44 -26 8 -62 27 -80 40 -18 13
-55 32 -82 41 -27 8 -63 26 -80 39 -17 13 -56 36 -86 51 -30 14 -93 49 -140
76 -47 27 -107 61 -133 75 -26 14 -68 40 -92 58 -24 18 -72 50 -107 72 -35 22
-91 60 -125 85 -87 63 -138 98 -298 202 -77 50 -143 96 -148 102 -10 15 0 55
21 85 24 33 99 161 116 196 96 203 115 276 123 488 7 165 -16 305 -68 418 -21
47 -39 90 -39 95 0 5 -15 31 -33 59 -19 27 -46 70 -61 95 -26 43 -47 74 -146
209 -95 131 -148 215 -170 271 -11 28 -31 73 -46 101 -20 40 -27 75 -35 167
-6 65 -14 128 -17 142 -11 38 -49 37 -94 -2z m6475 -5177 c47 -16 122 -37 166
-46 45 -9 109 -29 144 -45 34 -15 89 -33 122 -40 33 -7 88 -25 123 -41 35 -16
80 -31 100 -35 48 -9 88 -29 96 -49 9 -25 7 -243 -4 -385 -5 -69 -21 -190 -35
-270 -13 -80 -29 -206 -35 -280 -12 -152 -23 -221 -50 -331 -11 -41 -26 -133
-34 -205 -8 -71 -19 -141 -25 -157 -21 -55 -50 -184 -61 -270 -6 -49 -22 -117
-35 -152 -13 -35 -33 -107 -45 -160 -11 -53 -31 -123 -45 -155 -13 -31 -31
-89 -39 -127 -8 -39 -28 -97 -44 -129 -16 -33 -35 -83 -41 -112 -6 -29 -22
-74 -35 -100 -14 -27 -32 -77 -41 -113 -9 -35 -29 -89 -45 -120 -16 -31 -34
-78 -41 -105 -6 -27 -24 -71 -40 -99 -15 -27 -33 -72 -40 -100 -6 -27 -25 -73
-41 -102 -16 -28 -36 -75 -44 -104 -9 -28 -26 -68 -39 -88 -14 -20 -31 -55
-39 -79 -9 -24 -25 -57 -37 -73 -11 -16 -32 -57 -46 -92 -14 -34 -31 -69 -39
-78 -8 -8 -26 -44 -40 -80 -14 -35 -34 -75 -44 -90 -10 -14 -27 -45 -36 -70
-10 -24 -32 -65 -50 -92 -18 -26 -36 -58 -40 -70 -3 -12 -18 -37 -32 -56 -14
-18 -37 -59 -52 -90 -36 -73 -169 -217 -193 -208 -22 8 -21 30 3 108 10 35 28
117 40 182 11 65 31 146 44 180 13 34 31 106 40 161 9 54 27 124 40 155 13 31
31 105 41 165 9 60 29 150 45 200 15 51 31 123 35 161 4 39 22 135 40 215 18
80 39 197 45 260 7 63 25 179 40 257 19 90 33 203 39 310 11 170 23 280 43
388 16 87 25 232 38 575 15 401 6 1354 -15 1529 -16 131 -13 165 14 182 26 16
131 2 224 -30z m-5309 -1372 c22 -6 55 -22 75 -35 20 -13 52 -29 71 -35 34
-11 75 -36 205 -122 148 -98 325 -250 429 -366 32 -36 68 -75 80 -87 21 -20
75 -93 141 -189 19 -27 50 -81 70 -120 19 -38 43 -82 53 -97 16 -26 16 -29 0
-44 -15 -16 -18 -15 -36 14 -31 51 -318 297 -416 356 -17 10 -53 33 -81 52
-27 18 -72 38 -100 45 -27 7 -75 24 -105 37 -43 20 -71 25 -132 25 -70 0 -86
-4 -165 -42 -103 -49 -130 -72 -190 -163 -33 -50 -47 -83 -54 -130 -30 -179
37 -316 204 -416 56 -34 102 -54 143 -61 32 -6 91 -27 131 -46 40 -19 84 -40
98 -45 84 -32 329 -256 416 -382 25 -35 66 -106 92 -158 39 -79 49 -113 63
-205 30 -203 6 -473 -53 -589 -14 -27 -31 -67 -39 -88 -37 -105 -186 -302
-277 -368 -129 -92 -222 -145 -277 -160 -25 -6 -73 -25 -107 -41 -50 -24 -92
-34 -210 -49 -81 -11 -173 -28 -203 -39 -30 -10 -89 -24 -130 -31 -56 -9 -96
-24 -158 -58 -73 -41 -90 -55 -128 -113 -36 -53 -47 -80 -56 -135 -5 -38 -15
-75 -20 -81 -16 -20 -42 -15 -68 12 -13 14 -32 25 -42 25 -18 0 -22 -11 -32
-84 -9 -68 -45 -68 -94 0 -17 22 -49 50 -72 62 -40 19 -44 20 -75 5 -18 -9
-40 -13 -48 -10 -8 3 -25 35 -37 72 -27 81 -51 110 -136 165 -69 45 -124 61
-284 80 -41 5 -95 14 -120 19 -25 6 -81 11 -125 11 -44 0 -141 9 -215 19 -112
16 -148 25 -210 55 -41 20 -82 36 -91 36 -9 0 -41 16 -70 36 -30 20 -68 43
-86 53 -55 28 -182 150 -241 232 -78 107 -121 185 -160 293 -18 50 -40 109
-49 131 -21 54 -30 336 -14 430 7 37 24 91 38 119 14 28 31 71 38 96 11 41 56
117 132 225 50 70 210 223 267 255 31 18 58 36 62 41 3 5 71 41 152 80 81 39
155 78 166 88 29 25 96 119 112 156 17 41 19 231 3 288 -22 82 -169 218 -266
247 -25 8 -80 11 -144 8 -95 -3 -111 -7 -184 -41 -98 -45 -109 -52 -182 -102
-68 -46 -268 -244 -333 -329 -25 -32 -56 -71 -70 -85 -14 -14 -36 -46 -50 -71
-51 -92 -83 -25 -34 71 14 29 35 79 45 111 11 32 33 79 49 105 17 26 30 52 30
58 0 7 19 42 42 78 24 36 51 78 60 94 74 119 299 380 375 435 18 13 71 53 119
90 52 41 101 70 122 74 73 14 243 -2 322 -30 41 -15 108 -38 147 -51 40 -13
85 -32 101 -44 16 -11 53 -29 82 -41 29 -11 65 -30 79 -41 14 -11 56 -38 93
-60 88 -51 126 -52 162 -4 26 33 30 35 86 35 68 0 83 13 96 84 8 46 45 89 68
80 9 -3 23 -31 32 -62 30 -103 101 -143 146 -82 22 30 70 42 83 20 11 -19 44
-10 62 16 65 94 192 213 284 266 25 15 51 34 59 43 7 8 38 23 69 31 31 9 81
28 111 41 90 40 224 54 304 32z m342 -873 c47 -22 86 -60 112 -112 14 -28 -3
-62 -48 -92 -31 -21 -44 -23 -106 -20 -72 5 -119 24 -171 71 -33 29 -31 89 2
123 57 57 131 68 211 30z m-2631 -130 c18 -14 40 -41 49 -61 17 -34 17 -38 -2
-73 -28 -54 -93 -84 -190 -89 -65 -4 -82 -1 -109 16 -42 26 -43 61 -4 122 52
82 94 108 170 109 42 0 61 -5 86 -24z"/>
<path d="M2865 8108 c-37 -14 -127 -71 -143 -91 -12 -14 -32 -147 -32 -213 0
-46 27 -73 84 -83 39 -7 58 -18 92 -53 76 -78 140 -82 204 -13 14 15 62 44
106 66 87 41 114 73 114 137 0 90 -40 146 -152 213 -69 41 -78 43 -158 46 -47
1 -98 -3 -115 -9z"/>
<path d="M3505 7618 c-26 -18 -62 -41 -79 -52 -17 -10 -53 -33 -81 -51 -77
-49 -215 -113 -270 -125 -27 -6 -92 -24 -143 -41 -91 -28 -150 -35 -449 -52
-70 -4 -98 -19 -83 -47 6 -12 31 -23 66 -30 31 -7 88 -23 127 -36 62 -21 88
-24 216 -24 80 0 162 5 181 10 177 46 215 62 363 152 48 29 164 146 212 213
36 52 43 83 23 103 -18 18 -29 15 -83 -20z"/>
</g>
</svg>
