<svg id="Layer_1" data-name="Layer 1" xmlns="http://www.w3.org/2000/svg" viewBox="0 0 297.23 313.3"><path d="M247,301.41a250.41,250.41,0,0,1,58.56,24.47l-4-25.87,21.67-8a288.37,288.37,0,0,0-56.17-24.49L247,301.41Z" transform="translate(-26.27 -12.58)" style="fill:#063;fill-rule:evenodd"/><path d="M102.51,301.41A250.59,250.59,0,0,0,44,325.88l4-25.87-21.67-8a288.73,288.73,0,0,1,56.18-24.49Z" transform="translate(-26.27 -12.58)" style="fill:#063;fill-rule:evenodd"/><polygon points="149.85 0 158.68 7.31 168.36 1.16 176.2 9.52 186.57 4.64 193.31 13.91 204.21 10.37 209.73 20.42 220.99 18.27 225.21 28.93 236.65 28.2 239.5 39.31 250.94 40.02 252.37 51.4 263.63 53.54 263.63 65 274.53 68.55 273.09 79.92 283.47 84.8 280.61 95.9 290.29 102.04 286.07 112.69 294.9 120 289.38 130.04 297.23 138.4 290.49 147.67 297.23 156.94 289.38 165.3 294.9 175.34 286.07 182.65 290.29 193.3 280.61 199.44 283.47 210.55 273.09 215.42 274.53 226.8 263.63 230.34 263.63 241.8 252.37 243.94 250.94 255.32 239.5 256.04 236.65 267.14 225.21 266.42 220.99 277.08 209.73 274.93 204.21 284.97 193.31 281.43 186.57 290.7 176.2 285.82 168.36 294.18 158.68 288.03 149.85 295.34 141.02 288.03 131.34 294.18 123.5 285.82 113.13 290.7 106.39 281.43 95.49 284.97 89.97 274.93 78.71 277.08 74.49 266.42 63.05 267.14 60.2 256.04 48.76 255.32 47.33 243.94 36.07 241.8 36.07 230.34 25.17 226.8 26.61 215.42 16.23 210.55 19.09 199.44 9.41 193.3 13.63 182.65 4.79 175.34 10.32 165.3 2.47 156.94 9.21 147.67 2.47 138.4 10.32 130.04 4.79 120 13.63 112.69 9.41 102.04 19.09 95.9 16.23 84.8 26.61 79.92 25.17 68.55 36.07 65 36.07 53.54 47.33 51.4 48.76 40.02 60.2 39.31 63.05 28.2 74.49 28.93 78.71 18.27 89.97 20.42 95.49 10.37 106.39 13.91 113.13 4.64 123.5 9.52 131.34 1.16 141.02 7.31 149.85 0" style="fill:#063;fill-rule:evenodd"/><path d="M176.13,34.23a126,126,0,1,0,126,126A126,126,0,0,0,176.13,34.23Z" transform="translate(-26.27 -12.58)" style="fill:#fff;fill-rule:evenodd"/><path d="M176.12,71.46a88.79,88.79,0,1,0,88.78,88.79A88.79,88.79,0,0,0,176.12,71.46Z" transform="translate(-26.27 -12.58)" style="fill:none;stroke:#063;stroke-miterlimit:10;fill-rule:evenodd"/><path d="M65.94,197.55l-.86-3.06,10.46-7.07-12.62-.63-.86-3.07,15.76-7.42.85,3-9.94,4.7,11.43.59.78,2.77-9.47,6.41,11-1.11.86,3.07Z" transform="translate(-26.27 -12.58)" style="fill:#026634"/><path d="M59.93,166.79l-.17-3.31L76.58,156l.17,3.4-3.46,1.52.35,7,3.61,1.21.17,3.4Zm4.46-1.9,6,2-.24-4.59Z" transform="translate(-26.27 -12.58)" style="fill:#026634"/><path d="M60,148.25l.57-3.83a12.7,12.7,0,0,1,1.73-5.37,7.25,7.25,0,0,1,3.43-2.52,9.83,9.83,0,0,1,5-.45,10,10,0,0,1,3.51,1.19,7.59,7.59,0,0,1,2.47,2.21,6.5,6.5,0,0,1,1.13,2.71,18.05,18.05,0,0,1-.28,4.7L77,150.78Zm3.59-2.74,10.72,1.59.22-1.5a7.58,7.58,0,0,0,0-3.29,3.87,3.87,0,0,0-1.47-1.89,6.28,6.28,0,0,0-2.86-1.08,5.68,5.68,0,0,0-4.42.89,6.15,6.15,0,0,0-2,4.18Z" transform="translate(-26.27 -12.58)" style="fill:#026634"/><path d="M64.35,126.21l3-8.89,3,1-2,5.82,2.94,1,2-5.81,3,1-2,5.81,4.29,1.44,1.94-5.82,3.05,1-3,8.9Z" transform="translate(-26.27 -12.58)" style="fill:#026634"/><path d="M70.83,109.21l1.62-3.07a11.2,11.2,0,0,1,2.34-3.35,4.17,4.17,0,0,1,2.39-.93,5.13,5.13,0,0,1,2.81.65,4.74,4.74,0,0,1,2.13,2,4.93,4.93,0,0,1,.39,3l8.65,0-1.67,3.16-8.23,0-.14.27,6.43,3.39L86,117.21Zm7.47.23.47-.91a3.93,3.93,0,0,0,.64-2.09,1.54,1.54,0,0,0-.93-1.15,1.62,1.62,0,0,0-1.89.21,5.9,5.9,0,0,0-1,1.5l-.42.8Z" transform="translate(-26.27 -12.58)" style="fill:#026634"/><path d="M83.83,88.18l2.07-2.6,17.56,5.5-2.11,2.66L97.74,92.6l-4.36,5.49,1.91,3.29L93.18,104Zm4.62,1.51,3.18,5.48,2.86-3.61Z" transform="translate(-26.27 -12.58)" style="fill:#026634"/><path d="M104.59,67.26l2.64-1.93,8.32,11.33,3.84-2.82,1.85,2.51-6.48,4.76Z" transform="translate(-26.27 -12.58)" style="fill:#026634"/><path d="M117.71,58.37,126,54l1.5,2.83-5.41,2.88,1.46,2.74L129,59.53l1.47,2.77L125,65.18l2.13,4,5.41-2.88,1.51,2.83-8.28,4.41Z" transform="translate(-26.27 -12.58)" style="fill:#026634"/><path d="M150.22,48.27l-1.53,2.85a6.8,6.8,0,0,0-5.55-.72,5.81,5.81,0,0,0-3.57,2.85,5.49,5.49,0,0,0-.44,4.41,5.61,5.61,0,0,0,2.93,3.51,6,6,0,0,0,4.7.37A5.36,5.36,0,0,0,149.28,60a5,5,0,0,0,1.14-2.68l-4.75,1.46-.9-2.94L153,53.33l.23.68a8.42,8.42,0,0,1,.14,4.43,8.13,8.13,0,0,1-2,3.84,8.6,8.6,0,0,1-3.85,2.29,9.71,9.71,0,0,1-4.9.28,8.43,8.43,0,0,1-4.14-2.19A9.26,9.26,0,0,1,136,58.59a8.64,8.64,0,0,1,.42-6.34,8.87,8.87,0,0,1,5.77-4.9,10.53,10.53,0,0,1,4.25-.44A9.54,9.54,0,0,1,150.22,48.27Z" transform="translate(-26.27 -12.58)" style="fill:#026634"/><path d="M165,43.29l3.31-.27,8,16.59-3.39.27-1.63-3.42-7,.57-1.11,3.64-3.39.27Zm2,4.4-1.82,6.07,4.58-.37Z" transform="translate(-26.27 -12.58)" style="fill:#026634"/><path d="M183.09,42.93l3.25.29-1.22,14,4.74.42-.27,3.11-8-.7Z" transform="translate(-26.27 -12.58)" style="fill:#026634"/><path d="M224,56.05l-2.91,1.23a7,7,0,0,0-4-4.16,5.75,5.75,0,0,0-7.51,3.39,6,6,0,0,0-.38,3.12,5.3,5.3,0,0,0,1.23,2.7A6.22,6.22,0,0,0,213,64.12a6.4,6.4,0,0,0,2.62.42,9.56,9.56,0,0,0,3.11-.9l1.26,3a12.22,12.22,0,0,1-4.28,1.14,9.7,9.7,0,0,1-3.87-.7,8.84,8.84,0,0,1-5.23-4.69,8.74,8.74,0,0,1-.09-7,8.83,8.83,0,0,1,2.7-3.86,8.66,8.66,0,0,1,4.25-1.83,9.44,9.44,0,0,1,4.79.51A9.91,9.91,0,0,1,224,56.05Z" transform="translate(-26.27 -12.58)" style="fill:#026634"/><path d="M240.36,61.59a8.52,8.52,0,0,1,3.78,5.65,9.16,9.16,0,0,1-7,10.71,9,9,0,0,1-10.57-7.06,9.16,9.16,0,0,1,4.85-9.83,8.67,8.67,0,0,1,4.54-.93A8.8,8.8,0,0,1,240.36,61.59Zm-1.79,2.65a5.39,5.39,0,0,0-4.26-.82A5.76,5.76,0,0,0,230.64,66a5.49,5.49,0,0,0-.78,4.89A5.6,5.6,0,0,0,232.19,74a5.3,5.3,0,0,0,4.24.78A6.06,6.06,0,0,0,241,67.87,5.41,5.41,0,0,0,238.57,64.24Z" transform="translate(-26.27 -12.58)" style="fill:#026634"/><path d="M259.13,80.82l-3.23-.16a3.42,3.42,0,0,0-.62-3.08,1.51,1.51,0,0,0-1-.49,1,1,0,0,0-.84.27,1.32,1.32,0,0,0-.36.79,21.8,21.8,0,0,0,.18,3.25c.16,1.62.25,2.62.25,3a7,7,0,0,1-.34,2.36,4.63,4.63,0,0,1-1.1,1.72A4.58,4.58,0,0,1,248.6,90a5.32,5.32,0,0,1-3.69-1.67,5.67,5.67,0,0,1-1.66-2.88,7.15,7.15,0,0,1,.3-3.65l3.13.73c-.47,1.66-.32,2.87.45,3.62a2,2,0,0,0,1.36.64,1.46,1.46,0,0,0,1.2-.41,1.94,1.94,0,0,0,.5-1.14,11.77,11.77,0,0,0-.12-2.61,19.82,19.82,0,0,1-.13-5.06,4.5,4.5,0,0,1,1.15-2.35,4.08,4.08,0,0,1,3.12-1.24,4.69,4.69,0,0,1,3.29,1.43,5.26,5.26,0,0,1,1.34,2.14A8.77,8.77,0,0,1,259.13,80.82Z" transform="translate(-26.27 -12.58)" style="fill:#026634"/><path d="M265.44,84.4l5.79,7.52-2.55,2-1.91-2.48-11,8.52-2-2.63,11.05-8.52-1.86-2.41Z" transform="translate(-26.27 -12.58)" style="fill:#026634"/><path d="M278.13,103.08l1.56,2.93-12.06,13.9-1.6-3,2.49-2.85-3.29-6.18-3.78.43-1.6-3Zm-3.23,3.62-6.29.74,2.16,4.06Z" transform="translate(-26.27 -12.58)" style="fill:#026634"/><path d="M289.14,130.91l.7,3.39a11.49,11.49,0,0,1,.32,4.07,4.15,4.15,0,0,1-1.26,2.24,5.18,5.18,0,0,1-2.58,1.29,4.79,4.79,0,0,1-2.94-.23,4.92,4.92,0,0,1-2.18-2l-6.66,5.52-.72-3.5,6.34-5.25-.06-.29L273,137.58l-.66-3.21Zm-5.92,4.55.21,1a4,4,0,0,0,.84,2,1.53,1.53,0,0,0,1.45.3,1.79,1.79,0,0,0,.9-.48,1.61,1.61,0,0,0,.42-.89,5.5,5.5,0,0,0-.18-1.79l-.18-.88Z" transform="translate(-26.27 -12.58)" style="fill:#026634"/><path d="M292.1,149.27l.22,3.24-17.13,1.21-.23-3.24Z" transform="translate(-26.27 -12.58)" style="fill:#026634"/><path d="M288.38,177.13l-2-2.46a7.06,7.06,0,0,0,2.89-5,5.74,5.74,0,0,0-5.32-6.3,6.09,6.09,0,0,0-3.1.49,5.36,5.36,0,0,0-2.27,1.93,6.08,6.08,0,0,0-1,3,6.24,6.24,0,0,0,.31,2.64,9.51,9.51,0,0,0,1.71,2.74l-2.49,2a12.25,12.25,0,0,1-2.27-3.8,9.86,9.86,0,0,1-.39-3.91,9.15,9.15,0,0,1,14.23-6.78,8.61,8.61,0,0,1,2.92,3.58,9.34,9.34,0,0,1,.82,4.75,9.82,9.82,0,0,1-4.06,7.17Z" transform="translate(-26.27 -12.58)" style="fill:#026634"/><path d="M288,191.31l-1,3.18-18.36,1.35,1-3.25,3.77-.26,2-6.71-3-2.36,1-3.25Zm-4.85.29-5-3.91-1.33,4.4Z" transform="translate(-26.27 -12.58)" style="fill:#026634"/><path d="M176.12,277.37c-37.81,0-73.77,10.89-106.37,30.46L56.34,258.3c36.78-21.71,77.26-33.73,119.77-33.73,39.62,0,59.89-1.61,119.78,33.73l-13.41,49.53C249.88,288.25,213.92,277.37,176.12,277.37Z" transform="translate(-26.27 -12.58)" style="fill:#063;fill-rule:evenodd"/><text transform="translate(45.6 271.89) rotate(-20.64) scale(1 0.9)" style="font-size:30px;fill:#fff;font-family:CenturyGothic-Bold, Century Gothic;font-weight:700">C</text><text transform="matrix(0.96, -0.29, 0.26, 0.86, 70.07, 262.89)" style="font-size:30px;fill:#fff;font-family:CenturyGothic-Bold, Century Gothic;font-weight:700">E</text><text transform="translate(87.6 257.65) rotate(-12.99) scale(1 0.9)" style="font-size:30px;fill:#fff;font-family:CenturyGothic-Bold, Century Gothic;font-weight:700">R</text><text transform="matrix(0.99, -0.16, 0.14, 0.89, 107.22, 253.29)" style="font-size:30px;fill:#fff;font-family:CenturyGothic-Bold, Century Gothic;font-weight:700">T</text><text transform="translate(122.41 250.96) rotate(-6.16) scale(1 0.9)" style="font-size:30px;fill:#fff;font-family:CenturyGothic-Bold, Century Gothic;font-weight:700">I</text><text transform="translate(133.47 249.76) rotate(-2.84) scale(1 0.9)" style="font-size:30px;fill:#fff;font-family:CenturyGothic-Bold, Century Gothic;font-weight:700">F</text><text transform="matrix(1, 0.01, -0.01, 0.9, 150.58, 249.08)" style="font-size:30px;fill:#fff;font-family:CenturyGothic-Bold, Century Gothic;font-weight:700">I</text><text transform="matrix(1, 0.09, -0.08, 0.9, 161.63, 248.99)" style="font-size:30px;fill:#fff;font-family:CenturyGothic-Bold, Century Gothic;font-weight:700">C</text><text transform="translate(187.41 251.48) rotate(11.29) scale(1 0.9)" style="font-size:30px;fill:#fff;font-family:CenturyGothic-Bold, Century Gothic;font-weight:700">A</text><text transform="matrix(0.96, 0.29, -0.26, 0.86, 211.66, 256.49)" style="font-size:30px;fill:#fff;font-family:CenturyGothic-Bold, Century Gothic;font-weight:700">D</text><text transform="translate(234.19 263.48) rotate(22.34) scale(1 0.9)" style="font-size:30px;fill:#fff;font-family:CenturyGothic-Bold, Century Gothic;font-weight:700">A</text><path d="M263.29,145.48a61.71,61.71,0,0,0-12-2.44,69.9,69.9,0,0,1-13.87-3.24,26.77,26.77,0,0,1-6-2.36c-2.44-1.55-5.52-2.5-8-4.05-3.5-2.19-6.16-5-9.3-7.61a35.93,35.93,0,0,1-7-8.42,35.34,35.34,0,0,0-11.7-11.88c-.29-.17-2.61-.86-2.9-1.07,1.57,1.89,4.89,3.61,6.84,5.44,1.36,1.28,2.23,3.15,3.24,4.74,2.23,3.47,2.61,7.88,4.75,11.44.6,1,7.08,6.14,5.76,7-.93.58-7.75-3.16-8.55-3.47-2-.77-4.17-1.23-6.23-1.83-3.36-1-7-1.12-10.23-2.39-18.34-3.57-30-11.38-31.5-12.55-3.55-2.71-11-7.79-15.25-7.5,2,.92,4.45,1.65,6.14,3,1.86,1.56,11.94,9.39,12.06,9.47,3,1.92,20,9.87,28,11.37,4,.74,11,4,15,5,3.36.84,6.67,2.36,9.95,3.32,7.36,2.15,13.08,5.15,20.87,7.27,3.4.93,11.17,4,14.42,4.21,5.83.37,11.6,3.52,16.76,7.71C264.52,156.67,263.7,148.94,263.29,145.48Z" transform="translate(-26.27 -12.58)" style="fill:#026634"/><path d="M153.32,112.25c-3.45-1.54-7.46-2.16-10.81.1-3.56,2.39-4.87,6.58-9.5,7,4.29,2.05,9.09,3.16,13.53,1.11,3.06-1.41,5.44-5,6.89-7.94" transform="translate(-26.27 -12.58)" style="fill:#026634"/><path d="M201.65,112.19c-3.44-1.55-7.45-2.16-10.81.09-3.55,2.39-4.86,6.59-9.49,7,4.29,2,9.09,3.17,13.53,1.12,3.06-1.42,5.44-5,6.89-7.94" transform="translate(-26.27 -12.58)" style="fill:#026634"/><path d="M196.38,106.94c-1.1-3.61-3.26-7-7.17-8.09-4.13-1.12-8.16.65-11.53-2.56,1.26,4.58,3.57,8.94,8,10.95,3.07,1.38,7.37.8,10.51,0" transform="translate(-26.27 -12.58)" style="fill:#026634"/><path d="M144.39,106.21c-.39-3.76-1.88-7.53-5.51-9.3C135,95,130.74,96,128,92.23c.38,4.74,1.83,9.45,5.83,12.26,2.76,1.93,7.09,2.17,10.33,2" transform="translate(-26.27 -12.58)" style="fill:#026634"/><path d="M151.27,109.81c2.32-3,3.86-6.72,2.47-10.52-1.48-4-5.25-6.29-4.58-10.89-3,3.68-5.23,8.08-4.29,12.88.65,3.3,3.6,6.48,6.08,8.57" transform="translate(-26.27 -12.58)" style="fill:#026634"/><path d="M200.6,109.52c3.36-1.72,6.34-4.47,6.67-8.5.36-4.27-2.11-7.91.44-11.81-4.28,2.07-8.15,5.13-9.32,9.88-.8,3.27.54,7.39,1.91,10.33" transform="translate(-26.27 -12.58)" style="fill:#026634"/><path d="M228.82,134c4.53,17.11,6.52,34.38,2.49,51.89-5.53,24-26.14,38.79-50.69,36.65-14.58-1.27-27.36-6.31-37.35-17.27-9.2-10.09-12.89-22.41-13.89-35.73-.35-4.67-.3-9.27,1.64-13.66,3.54-8.05,12.19-12.68,21.43-11.64,8.34.93,14.13,5.45,18.26,12.47.44.75.86,1.52,1.37,2.45,5.92-5.4,10.12-15.08,13.93-29,.86-4.69,9.36-3.68,12-1.6,1.56,1.25,2,5.68,2.16,7.68a120.86,120.86,0,0,1-3.25,36.4,39.81,39.81,0,0,0-1.35,6.79,17.77,17.77,0,0,0,2.43-3.18,88.61,88.61,0,0,0,6.87-16c2.79-8.13,3.86-18,4.33-26.5C210.43,128,222.07,125.62,228.82,134Z" transform="translate(-26.27 -12.58)" style="fill:#026634"/><circle cx="123.59" cy="151.65" r="19.71" style="fill:#fff"/><path d="M148.48,182.74a3.16,3.16,0,0,0,1.42-2.15c.71,1.6,1.44,2.31,2.63,2.5a3.29,3.29,0,0,1-.84-2.61,3.17,3.17,0,0,0,1.57,1.88,11.43,11.43,0,0,1-.26-1.42,2.7,2.7,0,0,1,1.72-2.67,14.82,14.82,0,0,1,3.53-.87,9.87,9.87,0,0,0,1.34-19.27,3.31,3.31,0,0,1-2.14-4.85,3.22,3.22,0,0,1,3.66-1.59,10.11,10.11,0,0,1,3.74,2.13A13.52,13.52,0,0,1,170,164.23a20.07,20.07,0,0,1-19.65,20.4,20.09,20.09,0,0,1-19.94-15.56,14.13,14.13,0,0,1,3-12.86,11,11,0,0,1,3.67-3,3.24,3.24,0,0,1,4.49,1.58,3.29,3.29,0,0,1-1.79,4.44,9.59,9.59,0,0,0-3.75,2.65,9.85,9.85,0,0,0,6.73,16.38,20.9,20.9,0,0,1,3.78.39,2.82,2.82,0,0,1,2.06,3.83C148.54,182.53,148.53,182.58,148.48,182.74Z" transform="translate(-26.27 -12.58)" style="fill:#026634"/><path d="M149.49,150.68a3.37,3.37,0,0,1,0-3c-1,.3-1.75,1.41-1.94,3-.5-.42-1.53-1.56-2-2,0,0,.65,2.08.82,2.6,0,0-5.28-4.09-9.22-3.07.1-.1,4.65-3.42,8.9-3.82,1.58-.17,2.22-2.14,2.25-2.43a3.24,3.24,0,0,1,.48,1.72c1.28-.76,2.49-1.24,3.78-.54a1.94,1.94,0,0,0-1.49,1,18.75,18.75,0,0,1,8.7,2.06,8.22,8.22,0,0,0-9.1,4.53c.1-.45.51-2.06.61-2.51C151.25,148.16,150,150.18,149.49,150.68Z" transform="translate(-26.27 -12.58)" style="fill:#063"/><path d="M151.79,158.05a1.93,1.93,0,0,0-.36-.22.78.78,0,0,0-1.09.74c-.06.54-.32.84-.76.87a.84.84,0,0,1-.86-.78c-.17-.78-.81-.94-1.46-.37a1.8,1.8,0,0,1,.19-2.32,2.85,2.85,0,0,1,3.55-.44A1.92,1.92,0,0,1,151.79,158.05Z" transform="translate(-26.27 -12.58)" style="fill:#063"/><path d="M144.31,162.16a13,13,0,0,0,10.6-3.44C153.08,162.74,148.49,164.21,144.31,162.16Z" transform="translate(-26.27 -12.58)" style="fill:#063"/><path d="M136.66,157c1.4.79,3.68-.27,2.85-1.51S136.66,155.25,136.66,157Z" transform="translate(-26.27 -12.58)" style="fill:#fff;fill-rule:evenodd"/><path d="M162.16,155.58c-1.28,1-3.68.21-3-1.13S161.94,153.86,162.16,155.58Z" transform="translate(-26.27 -12.58)" style="fill:#fff;fill-rule:evenodd"/></svg>